<svg width="30" height="21" viewBox="0 0 30 21" fill="none" xmlns="http://www.w3.org/2000/svg">
<path d="M6.49159 7.71041C10.0609 7.71041 12.9545 10.6245 12.9545 14.2191C12.9545 17.8129 10.0609 20.727 6.49159 20.727C2.92227 20.727 0.028631 17.8129 0.028631 14.2191L0 13.2891C0 6.09996 5.78728 0.272461 12.9259 0.272461V3.99178C10.4598 3.99178 8.14091 4.9586 6.3975 6.71496C6.06136 7.05246 5.75523 7.41246 5.4791 7.79019C5.8091 7.73769 6.14727 7.71041 6.49159 7.71041ZM23.537 7.71041C27.1064 7.71041 30 10.6245 30 14.2191C30 17.8129 27.1064 20.727 23.537 20.727C19.9677 20.727 17.0741 17.8129 17.0741 14.2191L17.0455 13.2891C17.0455 6.09996 22.8327 0.272461 29.9714 0.272461V3.99178C27.5052 3.99178 25.1864 4.9586 23.443 6.71496C23.1068 7.05246 22.8007 7.41246 22.5245 7.79019C22.8545 7.73769 23.1927 7.71041 23.537 7.71041Z" fill="#F58B00"/>
</svg>
