<?xml version="1.0" encoding="utf-8"?>
<!-- Generator: Adobe Illustrator 25.3.0, SVG Export Plug-In . SVG Version: 6.00 Build 0)  -->
<svg version="1.1" id="Layer_1" xmlns="http://www.w3.org/2000/svg" xmlns:xlink="http://www.w3.org/1999/xlink" x="0px" y="0px"
	 viewBox="0 0 708.66 708.66" style="enable-background:new 0 0 708.66 708.66;" xml:space="preserve">
<style type="text/css">
	.st0{fill:#889648;}
</style>
<g>
	<g>
		<g>
			<path class="st0" d="M355,164.22c-73.39,1.03-118.61,44.23-127.91,52c11.44,7.13,41.02,18.83,75,52.82
				c19.94,19.94,44.54,52.26,53.79,70.29c11.46-18.13,35.63-49.96,55.42-69.74c35.08-35.08,64.58-47.89,75.62-53.57
				C477.94,208.92,432.98,163.12,355,164.22L355,164.22z M398.04,251.68c-12.64,12.64-34.44,36.16-41.76,47.75
				c-5.91-11.53-27.97-35.35-40.72-48.1c-21.72-21.72-42.22-32.37-49.53-36.93c5.95-4.97,42.77-27.84,89.69-28.5
				c49.85-0.7,86.51,23.83,92.25,28.37C440.9,217.9,420.47,229.25,398.04,251.68L398.04,251.68z"/>
			<path id="mirrored-spirals_8_" class="st0" d="M529.37,284.54c-9.1-23.98-23.16-43.83-30.6-53.75
				c-23.16,11.58-73.6,42.18-102.55,76.08c-28.89,33.84-39.96,82.02-41.23,87.89c-1.27-5.87-12.33-54.05-41.23-87.89
				c-28.94-33.91-79.39-64.5-102.55-76.08c-7.44,9.92-21.5,29.77-30.6,53.75c-11.94,31.48-23.16,86.01,0,141.41
				c14.03,33.58,35.06,61.45,65.33,81.04c28.12,18.19,80.22,33.08,80.22,33.08s0.83-37.21-1.65-69.47
				c-2.41-31.38-11.21-71.72-30.6-108.33c-22.33-42.18-56.23-62.85-66.99-69.47c-6.62,11.58-20.67,39.7-9.92,95.1
				c9.77,50.32,63.68,83.53,63.68,83.53l-4.13-33.91c0,0-32.45-29.9-38.04-57.06c-5.79-28.12,1.65-50.45,1.65-50.45
				s27.68,18.61,44.66,68.64c15.71,46.31,16.54,105.85,16.54,105.85c2.75,3.56-37.07-15.05-57.89-32.25
				c-19.02-15.71-48.17-54.61-50.45-109.99c-2.48-60.37,28.12-99.24,28.12-99.24s60.37,32.25,86.01,74.43
				c21.96,36.11,30.6,95.93,34.73,128.18c3.3,25.76,3.31,75.26,3.31,75.26h19.6c0,0,0-49.49,3.31-75.26
				c4.13-32.25,12.78-92.07,34.73-128.18c25.64-42.18,86.01-74.43,86.01-74.43s30.6,38.87,28.12,99.24
				c-2.27,55.38-31.43,94.28-50.45,109.99c-20.82,17.2-60.63,35.82-57.89,32.25c0,0,0.83-59.54,16.54-105.85
				c16.98-50.03,44.66-68.64,44.66-68.64s7.44,22.33,1.65,50.45c-5.59,27.17-38.04,57.06-38.04,57.06l-4.13,33.91
				c0,0,53.91-33.2,63.68-83.53c10.75-55.41-3.31-83.53-9.92-95.1c-10.75,6.62-44.66,27.29-66.99,69.47
				c-19.38,36.61-28.18,76.96-30.6,108.33c-2.48,32.25-1.65,69.47-1.65,69.47s52.1-14.89,80.22-33.08
				c30.28-19.59,51.3-47.46,65.33-81.04C552.53,370.55,541.32,316.03,529.37,284.54z"/>
		</g>
	</g>
	<g>
		<path class="st0" d="M234.57,126.36L183.28,78.2l12.14-6.13l40.28,39.12l-7.48-55.68l12.06-6.09l8.3,69.87L234.57,126.36z"/>
		<path class="st0" d="M275.77,108.48L256.4,45.27l12.19-3.74l19.37,63.21L275.77,108.48z"/>
		<path class="st0" d="M293.44,101.4l15.52-68.62l14.33-1.83l32.26,62.53l-13.4,1.71L317.92,46.3l-11.27,53.42L293.44,101.4z
			 M302.03,85.17l2.12-10.27l33.35-4.26l4.53,9.42L302.03,85.17z"/>
		<path class="st0" d="M360.7,94.31l6.82-65.76l26.96,2.8c4.57,0.47,8.35,1.59,11.33,3.36c2.98,1.77,5.14,4,6.47,6.7
			c1.33,2.7,1.83,5.71,1.48,9.03c-0.34,3.32-1.34,6.03-2.98,8.14c-1.64,2.11-3.72,3.65-6.22,4.62c-2.51,0.97-5.15,1.41-7.92,1.31
			l1.52-0.89c2.99,0.44,5.59,1.51,7.78,3.23c2.2,1.72,3.84,3.86,4.93,6.45c1.09,2.58,1.49,5.31,1.19,8.19
			c-0.36,3.51-1.52,6.52-3.45,9.04c-1.94,2.52-4.6,4.38-7.99,5.58c-3.38,1.2-7.39,1.56-12.03,1.08L360.7,94.31z M374.45,85.3
			l13.25,1.37c3.38,0.35,6.09-0.16,8.13-1.53c2.04-1.37,3.21-3.53,3.52-6.47c0.31-2.94-0.43-5.35-2.2-7.21
			c-1.77-1.86-4.34-2.97-7.73-3.32l-13.06-1.35L374.45,85.3z M377.36,57.3l12.21,1.27c3.32,0.34,5.93-0.14,7.84-1.47
			c1.91-1.32,3.01-3.36,3.29-6.11c0.28-2.69-0.38-4.9-1.97-6.61c-1.59-1.72-4.08-2.75-7.46-3.1l-12.12-1.26L377.36,57.3z"/>
		<path class="st0" d="M417.22,101.58l20.24-62.93l12.14,3.9l-17.2,53.49l27.6,8.88l-3.04,9.44L417.22,101.58z"/>
		<path class="st0" d="M464.26,117.63l32.25-57.71l38.01,21.24l-5.02,8.99l-26.88-15.02l-8.43,15.09l24.4,13.64l-4.84,8.66
			l-24.4-13.64l-8.94,15.99l26.88,15.02l-5.02,8.99L464.26,117.63z"/>
	</g>
	<g>
		<path class="st0" d="M89.93,526.52c-3.55-5.5-5.43-11.04-5.62-16.61c-0.19-5.57,1.18-10.82,4.1-15.75
			c2.93-4.93,7.22-9.22,12.88-12.87c5.66-3.66,11.35-5.81,17.07-6.47c5.72-0.66,11.09,0.23,16.12,2.68
			c5.03,2.45,9.32,6.42,12.87,11.92c4.34,6.72,6.23,13.31,5.69,19.77c-0.55,6.46-3.54,12.16-8.97,17.09l-7.58-11.74
			c2.52-2.6,3.91-5.52,4.17-8.77c0.26-3.25-0.75-6.64-3.04-10.18c-2.15-3.33-4.76-5.66-7.82-6.98c-3.06-1.32-6.41-1.69-10.04-1.1
			c-3.63,0.58-7.43,2.16-11.4,4.72c-3.91,2.53-6.9,5.34-8.95,8.42c-2.05,3.09-3.1,6.29-3.12,9.61c-0.03,3.32,1.03,6.64,3.18,9.97
			c2.29,3.54,4.91,5.89,7.88,7.06c2.96,1.16,6.06,1.18,9.31,0.06l7.58,11.74c-6.41,2.72-12.65,2.98-18.71,0.79
			C99.47,537.69,94.27,533.24,89.93,526.52z"/>
		<path class="st0" d="M146.97,592.34c-4.78-4.2-8.05-8.99-9.8-14.39c-1.76-5.39-2-10.95-0.72-16.65c1.28-5.7,4.14-11.09,8.58-16.15
			c4.44-5.06,9.41-8.6,14.9-10.61c5.49-2.01,11.02-2.49,16.6-1.45c5.58,1.04,10.76,3.66,15.54,7.86c4.87,4.28,8.21,9.14,10.02,14.57
			c1.8,5.44,2.04,10.99,0.72,16.65c-1.33,5.66-4.21,11.03-8.66,16.09c-4.44,5.06-9.39,8.62-14.83,10.67
			c-5.44,2.05-10.98,2.53-16.6,1.45C157.1,599.3,151.85,596.61,146.97,592.34z M154.51,583.75c3.08,2.7,6.33,4.32,9.75,4.85
			c3.42,0.54,6.86,0.05,10.31-1.44c3.45-1.5,6.71-3.99,9.78-7.5c3.12-3.55,5.18-7.12,6.2-10.71c1.01-3.59,1.02-7.04,0.03-10.34
			c-1-3.3-3.03-6.31-6.11-9c-2.93-2.58-6.1-4.14-9.51-4.7c-3.41-0.56-6.83-0.11-10.29,1.34c-3.45,1.45-6.74,3.95-9.85,7.5
			c-3.07,3.5-5.12,7.07-6.13,10.7c-1.01,3.63-1.03,7.12-0.06,10.44C149.62,578.22,151.58,581.17,154.51,583.75z"/>
		<path class="st0" d="M196.46,629l26.78-60.44l13.9,6.16l1.71,45.79l35.07-29.5l13.9,6.16l-26.78,60.44l-11.66-5.17l18.02-40.67
			l-30.33,25.09l-9.15-4.06l-1.83-39.24l-17.98,40.58L196.46,629z"/>
		<path class="st0" d="M291.91,665.64l6.23-65.81l15.14,1.43l16.15,42.89l23.9-39.1l15.14,1.43l-6.22,65.81l-12.69-1.2l4.19-44.28
			l-20.8,33.42l-9.97-0.94l-14.18-36.63l-4.18,44.19L291.91,665.64z"/>
		<path class="st0" d="M417.65,665.83c-4.76,0.92-9.27,0.79-13.54-0.38c-4.26-1.17-7.91-3.45-10.93-6.84
			c-3.02-3.39-5.11-8.06-6.25-14l-7.66-39.88l12.52-2.4l7.68,39.97c0.62,3.22,1.68,5.82,3.18,7.8c1.5,1.99,3.36,3.31,5.57,3.98
			c2.21,0.67,4.71,0.73,7.49,0.2c2.84-0.55,5.17-1.54,6.98-2.97c1.81-1.44,3.03-3.35,3.66-5.75c0.63-2.4,0.64-5.2,0.02-8.42
			l-7.68-39.97l12.52-2.4l7.66,39.88c1.14,5.94,0.9,11.05-0.71,15.33c-1.61,4.29-4.23,7.77-7.85,10.45
			C426.69,663.1,422.47,664.91,417.65,665.83z"/>
		<path class="st0" d="M470.79,650.86l-28.87-59.47l11.47-5.57l47.28,27.76l-19.92-41.04l11.47-5.57l28.87,59.47l-11.47,5.57
			l-47.23-27.67l19.88,40.95L470.79,650.86z"/>
		<path class="st0" d="M542.37,611.08l-39.59-52.94l10.21-7.63l39.59,52.94L542.37,611.08z"/>
		<path class="st0" d="M582.89,576.57l-40.37-38.54l-13.3,13.94l-7.45-7.11l35.41-37.09l7.45,7.11l-13.3,13.94l40.37,38.54
			L582.89,576.57z"/>
		<path class="st0" d="M627.9,519.54l-20-11.82l-48.3-2.55l7.35-12.44l36.19,3.18l-1.3,2.2l-20.33-30.01l7.26-12.28l25.62,40.92
			l20,11.82L627.9,519.54z"/>
	</g>
	<g>
		<path class="st0" d="M637.96,447.51c-0.73,0-1.46-0.11-2.19-0.34c-3.89-1.21-6.06-5.34-4.85-9.23
			c8.56-27.53,12.91-56.26,12.91-85.39c0-71.65-26.54-140.27-74.74-193.22c-2.74-3.01-2.52-7.68,0.49-10.42
			c3.01-2.74,7.68-2.52,10.42,0.49c50.68,55.67,78.58,127.82,78.58,203.15c0,30.61-4.57,60.82-13.57,89.77
			C644.02,445.48,641.11,447.51,637.96,447.51z"/>
	</g>
	<g>
		<path class="st0" d="M77.66,454.4c-3.08,0-5.95-1.94-6.99-5.01c-10.53-31.11-15.87-63.69-15.87-96.83
			c0-75.34,27.91-147.48,78.58-203.15c2.74-3.01,7.41-3.23,10.42-0.49c3.01,2.74,3.23,7.41,0.49,10.42
			C96.11,212.28,69.57,280.9,69.57,352.55c0,31.53,5.08,62.52,15.09,92.1c1.31,3.86-0.76,8.05-4.62,9.36
			C79.25,454.27,78.45,454.4,77.66,454.4z"/>
	</g>
</g>
<rect x="-304.68" y="-213.55" class="st0" width="153.24" height="111.31"/>
</svg>
