<svg width="145" height="38.71" viewBox="0 0 145 38.71" fill="none" xmlns="http://www.w3.org/2000/svg"><path d="M19.12 0.184c-7.355 0.105 -11.889 4.453 -12.82 5.236 1.147 0.717 4.111 1.896 7.516 5.316 1.999 2.008 4.465 5.261 5.392 7.077 1.148 -1.825 3.571 -5.028 5.555 -7.022 3.517 -3.532 6.473 -4.822 7.58 -5.393C31.443 4.685 26.937 0.073 19.12 0.184m4.315 8.805c-1.266 1.273 -3.451 3.64 -4.185 4.808 -0.593 -1.161 -2.804 -3.559 -4.081 -4.842 -2.18 -2.187 -4.233 -3.26 -4.966 -3.719 0.596 -0.5 4.287 -2.802 8.989 -2.87 4.996 -0.07 8.671 2.4 9.246 2.855 -0.707 0.366 -2.754 1.509 -5.003 3.767" fill="#889648"/><path d="M36.596 12.298c-0.911 -2.414 -2.32 -4.412 -3.066 -5.412 -2.321 1.167 -7.378 4.246 -10.279 7.66 -2.895 3.407 -4.006 8.256 -4.132 8.849 -0.127 -0.592 -1.237 -5.442 -4.132 -8.849 -2.901 -3.414 -7.957 -6.494 -10.279 -7.66 -0.745 0.999 -2.155 2.997 -3.066 5.413 -1.196 3.169 -2.32 8.657 0 14.236 1.407 3.38 3.513 6.186 6.548 8.16 2.817 1.833 8.041 3.331 8.041 3.331s0.083 -3.746 -0.165 -6.994c-0.243 -3.159 -1.125 -7.222 -3.066 -10.907 -2.237 -4.246 -5.636 -6.328 -6.715 -6.994 -0.663 1.167 -2.073 3.997 -0.994 9.575 0.978 5.066 6.382 8.409 6.382 8.409l-0.415 -3.414s-3.252 -3.01 -3.812 -5.744c-0.581 -2.831 0.165 -5.078 0.165 -5.078s2.774 1.873 4.475 6.91c1.575 4.663 1.657 10.657 1.657 10.657 0.274 0.359 -3.716 -1.516 -5.802 -3.248C6.036 29.617 3.113 25.7 2.887 20.124c-0.248 -6.079 2.818 -9.991 2.818 -9.991s6.051 3.248 8.619 7.493c2.201 3.637 3.067 9.658 3.481 12.904 0.331 2.594 0.331 7.577 0.331 7.577h1.965s0 -4.983 0.331 -7.577c0.415 -3.248 1.281 -9.27 3.481 -12.904 2.57 -4.246 8.62 -7.493 8.62 -7.493s3.066 3.914 2.818 9.991c-0.229 5.577 -3.151 9.492 -5.056 11.073 -2.086 1.732 -6.078 3.607 -5.801 3.248 0 0 0.083 -5.995 1.657 -10.657 1.701 -5.038 4.475 -6.91 4.475 -6.91s0.746 2.247 0.165 5.078c-0.561 2.735 -3.812 5.744 -3.812 5.744l-0.415 3.414s5.404 -3.344 6.382 -8.409c1.078 -5.578 -0.331 -8.409 -0.994 -9.575 -1.079 0.667 -4.475 2.748 -6.715 6.994 -1.942 3.685 -2.825 7.748 -3.066 10.907 -0.248 3.248 -0.165 6.994 -0.165 6.994s5.221 -1.499 8.041 -3.331c3.035 -1.972 5.142 -4.778 6.548 -8.16 2.321 -5.578 1.197 -11.069 0.001 -14.236" fill="#889648"/><path d="m45.804 19.425 -4.577 -12.521h2.298l3.58 10.321 3.615 -10.321h2.262l-4.577 12.521z" fill="#E2E2CF"/><path d="M54.565 19.425V6.902h2.138v12.521h-2.138z" fill="#E2E2CF"/><path d="m58.394 19.425 4.577 -12.521h2.386l4.559 12.521h-2.262l-3.508 -10.017 -3.508 10.017zm2.047 -2.952 0.571 -1.699h6.142l0.57 1.699z" fill="#E2E2CF"/><path d="M71.629 19.425V6.902h4.897q1.3 0 2.182 0.411t1.335 1.136q0.453 0.724 0.453 1.673 0.001 0.949 -0.419 1.592a2.788 2.788 0 0 1 -1.087 0.984 3.937 3.937 0 0 1 -1.451 0.412l0.285 -0.198q0.836 0.018 1.506 0.447a3.176 3.176 0 0 1 1.059 1.118q0.392 0.688 0.392 1.531 0 0.983 -0.48 1.762 -0.48 0.778 -1.39 1.217 -0.909 0.44 -2.226 0.438h-5.057zm2.136 -7.227h2.457q1.014 0 1.55 -0.474 0.533 -0.474 0.533 -1.315 0 -0.822 -0.533 -1.296 -0.535 -0.473 -1.585 -0.474h-2.422zm0 5.474h2.6q1.069 0.001 1.655 -0.502 0.589 -0.501 0.588 -1.394 0 -0.895 -0.605 -1.422 -0.607 -0.528 -1.675 -0.528h-2.565v3.847z" fill="#E2E2CF"/><path d="M82.808 19.425V6.902h2.137v10.84h5.575v1.68h-7.712z" fill="#E2E2CF"/><path d="M92.604 19.425V6.902h8.049v1.735h-5.912v3.595h5.379v1.699h-5.379v3.756h5.912v1.735h-8.049z" fill="#E2E2CF"/><path d="M44.966 32.277c-0.892 0 -1.667 -0.197 -2.317 -0.589q-0.978 -0.589 -1.5 -1.644 -0.521 -1.052 -0.521 -2.437 0 -1.383 0.521 -2.443a3.91 3.91 0 0 1 1.5 -1.656q0.979 -0.594 2.317 -0.595 1.635 0.001 2.683 0.814c0.699 0.543 1.13 1.312 1.294 2.301h-1.905q-0.167 -0.724 -0.695 -1.131 -0.528 -0.408 -1.389 -0.408 -0.81 0 -1.378 0.382 -0.566 0.382 -0.869 1.072 -0.303 0.693 -0.302 1.661 0 0.956 0.302 1.655 0.302 0.698 0.869 1.075 0.568 0.374 1.378 0.374 0.862 0 1.39 -0.381 0.528 -0.382 0.695 -1.067h1.905q-0.246 1.411 -1.293 2.211 -1.052 0.805 -2.684 0.805" fill="#E2E2CF"/><path d="M54.567 32.277q-1.3 0 -2.297 -0.596a4.225 4.225 0 0 1 -1.571 -1.649q-0.573 -1.054 -0.573 -2.437t0.573 -2.438a4.245 4.245 0 0 1 1.571 -1.649q0.997 -0.594 2.297 -0.595 1.327 0.001 2.336 0.595a4.133 4.133 0 0 1 1.571 1.649c0.373 0.703 0.561 1.514 0.561 2.438q0 1.383 -0.561 2.437a4.101 4.101 0 0 1 -1.571 1.649q-1.01 0.596 -2.336 0.595m0 -1.566q0.837 0 1.436 -0.381 0.599 -0.382 0.927 -1.08 0.327 -0.699 0.327 -1.655 0 -0.971 -0.327 -1.661 -0.327 -0.692 -0.927 -1.067 -0.598 -0.374 -1.436 -0.375 -0.797 0 -1.397 0.374 -0.598 0.377 -0.934 1.067 -0.335 0.693 -0.335 1.661 0 0.956 0.335 1.655 0.335 0.697 0.934 1.08 0.598 0.381 1.396 0.381" fill="#E2E2CF"/><path d="M111.617 32.41q-0.991 -0.001 -1.801 -0.401a3.044 3.044 0 0 1 -1.288 -1.202c-0.316 -0.535 -0.474 -1.215 -0.474 -2.044v-5.561h1.737v5.573q-0.001 0.673 0.226 1.131 0.224 0.459 0.644 0.678 0.419 0.22 0.997 0.219 0.592 0.001 1.01 -0.219 0.419 -0.22 0.637 -0.678t0.218 -1.131v-5.573h1.738v5.561q0 1.241 -0.489 2.044a3.103 3.103 0 0 1 -1.319 1.202q-0.829 0.4 -1.835 0.401" fill="#E2E2CF"/><path d="M116.936 32.254V23.202h1.738l4.144 6.245v-6.245h1.738V32.254h-1.738l-4.144 -6.232v6.232z" fill="#E2E2CF"/><path d="M126.332 32.254V23.202h1.738V32.254z" fill="#E2E2CF"/><path d="M131.941 32.254V24.612h-2.626v-1.41h6.989v1.411h-2.626V32.254z" fill="#E2E2CF"/><path d="M139.871 32.254v-3.18l-3.052 -5.87h1.97l2.138 4.488h-0.347l2.111 -4.488h1.943l-3.025 5.87v3.18z" fill="#E2E2CF"/><path d="M107.684 28.71a0.787 0.787 0 0 0 -0.688 -0.302c-0.098 0.009 -0.241 0.044 -0.357 0.235 -0.192 0.318 -0.409 0.643 -0.646 0.966a6.561 6.561 0 0 1 -0.739 0.853 3.805 3.805 0 0 1 -0.804 0.597c-0.268 0.146 -0.544 0.22 -0.818 0.22 -0.246 0 -0.442 -0.05 -0.579 -0.149a0.879 0.879 0 0 1 -0.308 -0.392 2.165 2.165 0 0 1 -0.137 -0.606 7.873 7.873 0 0 1 -0.033 -0.719c0 -0.583 0.028 -1.094 0.086 -1.518 0.058 -0.436 0.088 -0.858 0.088 -1.258 0 -0.263 -0.03 -0.543 -0.089 -0.832a2.362 2.362 0 0 0 -0.324 -0.806 1.837 1.837 0 0 0 -0.649 -0.604c-0.274 -0.157 -0.627 -0.237 -1.041 -0.237 -0.358 0 -0.769 0.123 -1.223 0.365 -0.452 0.242 -0.938 0.721 -1.444 1.419q-0.267 0.358 -0.582 0.913a64.299 64.299 0 0 0 -0.655 1.18c-0.227 0.42 -0.448 0.843 -0.67 1.266q-0.157 0.305 -0.299 0.584 0.007 -0.194 0.018 -0.398l0.051 -1.082q0.026 -0.522 0.052 -0.975 0.026 -0.459 0.026 -0.742c0 -0.336 -0.037 -0.656 -0.107 -0.949a2.624 2.624 0 0 0 -0.331 -0.793 1.739 1.739 0 0 0 -0.575 -0.558c-0.468 -0.28 -1.138 -0.304 -1.896 0.063 -0.377 0.182 -0.743 0.489 -1.091 0.91 -0.2 0.247 -0.44 0.601 -0.732 1.08 -0.283 0.463 -0.575 0.964 -0.871 1.487a62.986 62.986 0 0 0 -1.212 2.255q0.063 -0.962 0.12 -1.916c0.052 -0.862 0.079 -1.821 0.079 -2.853q0 -0.359 -0.072 -0.742a2.428 2.428 0 0 0 -0.241 -0.695 1.476 1.476 0 0 0 -0.47 -0.521c-0.202 -0.138 -0.453 -0.209 -0.747 -0.209 -0.495 0 -0.999 0.315 -1.499 0.933 -0.48 0.594 -0.991 1.531 -1.517 2.788 -0.009 0.023 -0.005 0.043 -0.012 0.064a14.631 14.631 0 0 1 -0.843 1.604c-0.192 0.318 -0.409 0.643 -0.646 0.966a6.561 6.561 0 0 1 -0.739 0.854 3.805 3.805 0 0 1 -0.804 0.597c-0.267 0.145 -0.543 0.219 -0.818 0.219 -0.246 0 -0.442 -0.049 -0.579 -0.148a0.879 0.879 0 0 1 -0.308 -0.392 2.165 2.165 0 0 1 -0.137 -0.606 7.873 7.873 0 0 1 -0.033 -0.719c0 -0.583 0.028 -1.094 0.086 -1.518 0.058 -0.436 0.088 -0.859 0.088 -1.258q0 -0.397 -0.089 -0.833a2.362 2.362 0 0 0 -0.324 -0.806 1.837 1.837 0 0 0 -0.649 -0.604c-0.274 -0.157 -0.626 -0.236 -1.041 -0.236 -0.357 0 -0.769 0.123 -1.223 0.365 -0.452 0.242 -0.938 0.72 -1.444 1.419q-0.267 0.359 -0.582 0.914 -0.314 0.551 -0.655 1.18a91.855 91.855 0 0 0 -0.971 1.85q0.009 -0.194 0.018 -0.398a322.805 322.805 0 0 1 0.106 -2.057q0.026 -0.459 0.026 -0.74c0 -0.336 -0.037 -0.656 -0.109 -0.949a2.624 2.624 0 0 0 -0.331 -0.794 1.739 1.739 0 0 0 -0.575 -0.558c-0.468 -0.28 -1.138 -0.304 -1.896 0.064 -0.377 0.182 -0.742 0.489 -1.09 0.909 -0.201 0.248 -0.44 0.601 -0.732 1.08a48.552 48.552 0 0 0 -0.871 1.488 65.611 65.611 0 0 0 -1.212 2.254q0.062 -0.962 0.119 -1.916a47.24 47.24 0 0 0 0.079 -2.853c0 -0.238 -0.025 -0.487 -0.072 -0.741a2.362 2.362 0 0 0 -0.241 -0.695 1.509 1.509 0 0 0 -0.47 -0.521c-0.202 -0.138 -0.454 -0.208 -0.748 -0.208 -0.494 0 -0.999 0.314 -1.499 0.933 -0.48 0.593 -0.991 1.53 -1.516 2.788 -0.009 0.022 -0.005 0.042 -0.012 0.065a14.754 14.754 0 0 1 -0.842 1.604c-0.192 0.318 -0.41 0.643 -0.646 0.966 -0.229 0.315 -0.479 0.603 -0.739 0.854a3.805 3.805 0 0 1 -0.804 0.597 1.837 1.837 0 0 1 -0.408 0.164c-0.325 0.087 -0.552 0.4 -0.552 0.76v0.033c0 0.239 0.109 0.458 0.297 0.602a0.722 0.722 0 0 0 0.633 0.126 3.018 3.018 0 0 0 0.63 -0.251c0.438 -0.232 0.853 -0.531 1.232 -0.896a9.186 9.186 0 0 0 1.032 -1.179c0.306 -0.417 0.581 -0.823 0.815 -1.205 0.232 -0.379 0.422 -0.724 0.563 -1.027 0.139 -0.295 0.23 -0.489 0.28 -0.589v-0.003c0.411 -1 0.755 -1.707 1.02 -2.105 0.194 -0.291 0.313 -0.438 0.382 -0.512 0.016 0.052 0.031 0.131 0.047 0.245 0.033 0.233 0.046 0.495 0.033 0.776q-0.035 0.821 -0.077 1.762 -0.044 0.943 -0.079 1.772l-0.06 1.405q-0.026 0.581 -0.026 0.634c0 0.369 0.091 0.673 0.274 0.899 0.19 0.239 0.478 0.359 0.856 0.359 0.262 0 0.529 -0.1 0.795 -0.299 0.264 -0.196 0.516 -0.539 0.772 -1.054 0.201 -0.413 0.436 -0.877 0.702 -1.375 0.269 -0.505 0.545 -1.008 0.823 -1.496 0.287 -0.504 0.545 -0.938 0.788 -1.331 0.251 -0.406 0.45 -0.701 0.608 -0.903q0.297 -0.379 0.508 -0.507 0.201 -0.119 0.354 -0.12c0.06 0 0.152 0.016 0.255 0.147 0.085 0.108 0.127 0.299 0.127 0.567q0 0.207 -0.018 0.604 -0.018 0.404 -0.035 0.917a41.991 41.991 0 0 1 -0.053 1.069q-0.035 0.56 -0.052 1.087 -0.018 0.522 -0.035 0.959 -0.018 0.44 -0.018 0.703c0 0.367 0.088 0.671 0.262 0.905 0.183 0.245 0.452 0.371 0.798 0.371q0.241 -0.001 0.445 -0.102 0.198 -0.101 0.4 -0.331c0.127 -0.146 0.262 -0.348 0.4 -0.6q0.2 -0.366 0.496 -0.928a196.833 196.833 0 0 1 1.034 -1.988 24.276 24.276 0 0 1 0.992 -1.735c0.317 -0.501 0.63 -0.906 0.927 -1.207 0.278 -0.279 0.54 -0.42 0.777 -0.42q0.049 0 0.144 0.009a0.276 0.276 0 0 1 0.139 0.072c0.037 0.031 0.093 0.104 0.148 0.262 0.048 0.136 0.07 0.344 0.07 0.617 0 0.259 -0.03 0.632 -0.086 1.108 -0.058 0.486 -0.088 1.024 -0.088 1.596 0 0.434 0.035 0.861 0.108 1.264 0.072 0.411 0.211 0.781 0.411 1.097 0.202 0.321 0.476 0.581 0.814 0.772 0.34 0.19 0.779 0.288 1.312 0.288 0.496 0 0.975 -0.12 1.42 -0.357a5.511 5.511 0 0 0 1.232 -0.896 9.186 9.186 0 0 0 1.033 -1.178c0.308 -0.419 0.58 -0.825 0.814 -1.205 0.232 -0.378 0.422 -0.722 0.565 -1.026 0.138 -0.295 0.23 -0.489 0.28 -0.589v-0.003c0.411 -1.001 0.755 -1.707 1.02 -2.105 0.194 -0.291 0.313 -0.438 0.382 -0.512 0.016 0.052 0.031 0.13 0.047 0.245 0.033 0.234 0.046 0.495 0.033 0.776q-0.035 0.821 -0.077 1.762 -0.045 0.943 -0.079 1.771 -0.035 0.83 -0.061 1.405 -0.026 0.581 -0.027 0.634c0 0.369 0.092 0.673 0.275 0.899 0.19 0.239 0.478 0.359 0.856 0.359 0.262 0 0.529 -0.1 0.795 -0.299 0.264 -0.196 0.516 -0.539 0.772 -1.055 0.201 -0.413 0.436 -0.876 0.702 -1.375 0.269 -0.505 0.545 -1.009 0.823 -1.497 0.287 -0.504 0.545 -0.938 0.788 -1.331 0.251 -0.407 0.45 -0.702 0.609 -0.903q0.297 -0.379 0.508 -0.507 0.201 -0.119 0.354 -0.12c0.06 0 0.152 0.016 0.255 0.146 0.085 0.108 0.127 0.299 0.127 0.568q-0.001 0.207 -0.018 0.604 -0.017 0.404 -0.035 0.918a41.991 41.991 0 0 1 -0.053 1.069q-0.034 0.56 -0.052 1.087 -0.016 0.522 -0.033 0.959 -0.018 0.441 -0.018 0.703c0 0.367 0.088 0.672 0.262 0.905 0.182 0.245 0.452 0.371 0.798 0.371q0.241 -0.001 0.445 -0.102 0.198 -0.102 0.4 -0.331c0.127 -0.146 0.262 -0.348 0.399 -0.601q0.201 -0.365 0.496 -0.927c0.348 -0.674 0.692 -1.338 1.035 -1.988a24.276 24.276 0 0 1 0.992 -1.735c0.317 -0.5 0.628 -0.906 0.927 -1.207 0.28 -0.279 0.542 -0.42 0.779 -0.42q0.048 0 0.144 0.009a0.262 0.262 0 0 1 0.138 0.072c0.037 0.033 0.094 0.105 0.148 0.262 0.047 0.136 0.07 0.344 0.07 0.617 0 0.261 -0.03 0.634 -0.086 1.108a13.778 13.778 0 0 0 -0.088 1.596c0 0.438 0.035 0.863 0.107 1.263 0.072 0.413 0.211 0.783 0.411 1.097 0.203 0.321 0.477 0.582 0.815 0.772 0.339 0.191 0.779 0.289 1.312 0.289a3.018 3.018 0 0 0 1.42 -0.358 5.511 5.511 0 0 0 1.231 -0.896c0.335 -0.321 0.722 -0.712 1.037 -1.184 0.238 -0.354 0.404 -0.673 0.497 -0.951a0.807 0.807 0 0 0 -0.14 -0.743" fill="#889648"/></svg>